<svg xmlns="http://www.w3.org/2000/svg" width="1024" height="1024" viewBox="0 0 1024 1024">
<defs>
<linearGradient id="gb" gradientUnits="userSpaceOnUse" x1="512" y1="149" x2="512" y2="810">
<stop offset="0.00" stop-color="#EC85FF"/>
<stop offset="0.08" stop-color="#E377FF"/>
<stop offset="0.30" stop-color="#D761FF"/>
<stop offset="0.53" stop-color="#CC55FF"/>
<stop offset="0.76" stop-color="#A342FF"/>
<stop offset="1.00" stop-color="#8E41FF"/>
</linearGradient><linearGradient id="gm" gradientUnits="userSpaceOnUse" x1="512" y1="149" x2="512" y2="810">
<stop offset="0.00" stop-color="#F5A4FF"/>
<stop offset="0.23" stop-color="#EE83FF"/>
<stop offset="0.46" stop-color="#CC77FF"/>
<stop offset="0.72" stop-color="#B468FF"/>
<stop offset="1.00" stop-color="#A45FFF"/>
</linearGradient><linearGradient id="gh" gradientUnits="userSpaceOnUse" x1="512" y1="149" x2="512" y2="810">
<stop offset="0.00" stop-color="#F8D2FF"/>
<stop offset="0.17" stop-color="#F7CDFF"/>
<stop offset="0.35" stop-color="#F5C9FF"/>
<stop offset="0.55" stop-color="#E097FF"/>
<stop offset="0.75" stop-color="#C77FFF"/>
<stop offset="1.00" stop-color="#C074FF"/>
</linearGradient>
<clipPath id="sil"><path clip-rule="evenodd" d="M281.00,318.50L281.00,487.00L282.30,487.00L283.50,486.90L287.50,484.50L291.50,482.00L292.00,482.00L292.50,482.00L292.20,571.50L292.00,661.00L292.60,661.00L293.30,661.00L309.90,651.30L326.50,641.70L344.50,631.00L362.50,620.30L397.20,600.20L431.90,580.00L453.70,566.80L475.50,553.70L487.50,546.20L499.50,538.70L504.50,535.50L509.50,532.30L521.00,525.00L532.50,517.80L535.00,516.20L537.50,514.60L534.40,513.80L531.30,513.00L508.40,510.00L485.50,507.00L439.00,530.00L392.50,553.10L362.50,567.90L332.50,582.70L332.20,405.70L332.00,228.70L332.30,228.30L332.70,228.00L353.10,237.60L373.50,247.20L392.00,255.70L410.50,264.20L426.90,272.10L443.30,280.00L443.50,280.00L443.80,280.00L459.70,287.60L475.50,295.20L483.50,299.00L491.50,302.80L523.50,318.00L555.50,333.30L561.90,336.20L568.30,339.10L572.60,334.90L576.90,330.70L583.20,333.80L589.50,336.90L606.50,345.00L623.50,353.20L644.50,363.20L665.50,373.20L665.80,373.50L666.20,373.90L655.50,378.90L644.70,384.00L623.90,393.60L603.00,403.30L603.00,404.00L603.00,404.70L622.80,414.80L642.70,424.90L694.00,397.90L745.30,370.90L747.20,369.60L749.10,368.20L743.30,365.50L737.50,362.80L719.50,354.50L701.50,346.30L659.50,326.80L617.50,307.20L584.50,291.50L551.50,275.80L517.50,259.80L483.50,243.80L468.00,236.50L452.50,229.20L438.00,222.50L423.50,215.80L400.50,205.00L377.50,194.30L342.50,178.00L307.50,161.80L294.80,155.90L282.20,150.00L281.60,150.00L281.00,150.00L281.00,318.50Z M383.00,404.50L383.00,492.00L383.50,492.00L383.90,492.00L385.40,489.20L386.80,486.50L392.50,471.00L398.10,455.50L408.70,426.50L419.20,397.50L420.70,393.00L422.20,388.50L423.10,386.10L424.00,383.80L425.30,384.80L426.50,385.70L490.50,418.00L554.50,450.30L576.50,462.00L598.50,473.80L615.00,482.70L631.50,491.70L655.00,504.70L678.50,517.70L683.50,520.50L688.50,523.30L688.80,523.50L689.10,523.70L684.30,526.00L679.50,528.20L634.50,551.20L589.50,574.20L570.00,584.30L550.50,594.30L535.50,602.30L520.50,610.30L519.30,611.30L518.00,612.20L518.00,616.60L518.00,620.90L513.80,623.80L509.50,626.70L478.50,644.00L447.50,661.20L442.50,664.00L437.50,666.70L407.50,683.70L377.50,700.70L357.00,712.40L336.50,724.00L336.20,691.50L336.00,659.00L335.20,659.00L334.50,659.00L313.50,670.80L292.50,682.60L292.20,746.30L292.00,810.00L293.20,810.00L294.50,810.00L298.50,807.70L302.50,805.40L323.00,793.50L343.50,781.70L375.00,763.70L406.50,745.70L435.00,729.50L463.50,713.20L494.00,696.20L524.50,679.30L554.00,663.00L583.50,646.70L615.00,629.50L646.50,612.30L650.80,609.70L655.00,607.00L655.00,606.00L655.00,605.00L653.60,605.00L652.10,605.00L644.80,607.60L637.50,610.20L626.50,615.50L615.50,620.80L596.60,629.90L577.80,639.10L572.10,641.50L566.30,643.90L561.40,643.20L556.50,642.40L567.00,636.60L577.50,630.70L589.50,623.70L601.50,616.80L630.00,600.60L658.50,584.40L673.00,576.30L687.50,568.30L705.50,558.50L723.50,548.60L749.50,534.20L775.50,519.90L776.80,518.60L778.20,517.30L756.30,506.00L734.50,494.70L695.00,474.30L655.50,453.80L651.50,451.50L647.50,449.30L636.50,443.50L625.50,437.70L607.00,427.50L588.50,417.30L572.50,408.80L556.50,400.20L537.00,390.50L517.60,380.80L494.50,369.80L471.50,358.70L460.50,353.50L449.50,348.20L417.30,332.60L385.00,317.00L384.00,317.00L383.00,317.00L383.00,404.50Z"/></clipPath>
<filter id="soft" x="-20%" y="-20%" width="140%" height="140%"><feGaussianBlur stdDeviation="3.0"/></filter>
<filter id="soft2" x="-20%" y="-20%" width="140%" height="140%"><feGaussianBlur stdDeviation="1.6"/></filter>
</defs>
<path fill-rule="evenodd" fill="url(#gb)" d="M281.00,318.50L281.00,487.00L282.30,487.00L283.50,486.90L287.50,484.50L291.50,482.00L292.00,482.00L292.50,482.00L292.20,571.50L292.00,661.00L292.60,661.00L293.30,661.00L309.90,651.30L326.50,641.70L344.50,631.00L362.50,620.30L397.20,600.20L431.90,580.00L453.70,566.80L475.50,553.70L487.50,546.20L499.50,538.70L504.50,535.50L509.50,532.30L521.00,525.00L532.50,517.80L535.00,516.20L537.50,514.60L534.40,513.80L531.30,513.00L508.40,510.00L485.50,507.00L439.00,530.00L392.50,553.10L362.50,567.90L332.50,582.70L332.20,405.70L332.00,228.70L332.30,228.30L332.70,228.00L353.10,237.60L373.50,247.20L392.00,255.70L410.50,264.20L426.90,272.10L443.30,280.00L443.50,280.00L443.80,280.00L459.70,287.60L475.50,295.20L483.50,299.00L491.50,302.80L523.50,318.00L555.50,333.30L561.90,336.20L568.30,339.10L572.60,334.90L576.90,330.70L583.20,333.80L589.50,336.90L606.50,345.00L623.50,353.20L644.50,363.20L665.50,373.20L665.80,373.50L666.20,373.90L655.50,378.90L644.70,384.00L623.90,393.60L603.00,403.30L603.00,404.00L603.00,404.70L622.80,414.80L642.70,424.90L694.00,397.90L745.30,370.90L747.20,369.60L749.10,368.20L743.30,365.50L737.50,362.80L719.50,354.50L701.50,346.30L659.50,326.80L617.50,307.20L584.50,291.50L551.50,275.80L517.50,259.80L483.50,243.80L468.00,236.50L452.50,229.20L438.00,222.50L423.50,215.80L400.50,205.00L377.50,194.30L342.50,178.00L307.50,161.80L294.80,155.90L282.20,150.00L281.60,150.00L281.00,150.00L281.00,318.50Z M383.00,404.50L383.00,492.00L383.50,492.00L383.90,492.00L385.40,489.20L386.80,486.50L392.50,471.00L398.10,455.50L408.70,426.50L419.20,397.50L420.70,393.00L422.20,388.50L423.10,386.10L424.00,383.80L425.30,384.80L426.50,385.70L490.50,418.00L554.50,450.30L576.50,462.00L598.50,473.80L615.00,482.70L631.50,491.70L655.00,504.70L678.50,517.70L683.50,520.50L688.50,523.30L688.80,523.50L689.10,523.70L684.30,526.00L679.50,528.20L634.50,551.20L589.50,574.20L570.00,584.30L550.50,594.30L535.50,602.30L520.50,610.30L519.30,611.30L518.00,612.20L518.00,616.60L518.00,620.90L513.80,623.80L509.50,626.70L478.50,644.00L447.50,661.20L442.50,664.00L437.50,666.70L407.50,683.70L377.50,700.70L357.00,712.40L336.50,724.00L336.20,691.50L336.00,659.00L335.20,659.00L334.50,659.00L313.50,670.80L292.50,682.60L292.20,746.30L292.00,810.00L293.20,810.00L294.50,810.00L298.50,807.70L302.50,805.40L323.00,793.50L343.50,781.70L375.00,763.70L406.50,745.70L435.00,729.50L463.50,713.20L494.00,696.20L524.50,679.30L554.00,663.00L583.50,646.70L615.00,629.50L646.50,612.30L650.80,609.70L655.00,607.00L655.00,606.00L655.00,605.00L653.60,605.00L652.10,605.00L644.80,607.60L637.50,610.20L626.50,615.50L615.50,620.80L596.60,629.90L577.80,639.10L572.10,641.50L566.30,643.90L561.40,643.20L556.50,642.40L567.00,636.60L577.50,630.70L589.50,623.70L601.50,616.80L630.00,600.60L658.50,584.40L673.00,576.30L687.50,568.30L705.50,558.50L723.50,548.60L749.50,534.20L775.50,519.90L776.80,518.60L778.20,517.30L756.30,506.00L734.50,494.70L695.00,474.30L655.50,453.80L651.50,451.50L647.50,449.30L636.50,443.50L625.50,437.70L607.00,427.50L588.50,417.30L572.50,408.80L556.50,400.20L537.00,390.50L517.60,380.80L494.50,369.80L471.50,358.70L460.50,353.50L449.50,348.20L417.30,332.60L385.00,317.00L384.00,317.00L383.00,317.00L383.00,404.50Z"/>
<g clip-path="url(#sil)">
<path fill-rule="evenodd" fill="url(#gm)" filter="url(#soft)" d="M281.90,151.70C281.30,157.30 282.40,484.70 283.00,485.40C283.50,485.90 285.10,485.30 286.80,484.10C293.30,479.50 293.00,475.70 293.00,572.30C293.00,619.90 293.30,659.10 293.80,659.30C294.20,659.60 301.30,655.70 309.50,650.80C317.80,645.80 343.00,630.90 365.50,617.70C432.10,578.80 451.20,567.50 476.50,552.00C520.60,525.00 535.00,515.60 534.10,514.70C533.50,514.10 522.20,512.40 508.80,510.70L484.50,507.80L407.80,546.00L331.00,584.20L333.10,587.10C334.20,588.70 335.50,590.00 335.90,590.00C336.30,590.00 353.00,581.80 373.10,571.90C393.10,561.90 410.70,553.70 412.20,553.50C413.70,553.40 415.60,552.70 416.50,552.00C417.30,551.30 418.00,551.10 418.00,551.60C418.00,552.00 419.10,551.30 420.50,550.00C421.90,548.70 423.30,548.00 423.70,548.30C424.00,548.70 425.00,548.50 425.70,547.80C427.10,546.60 428.90,546.20 434.10,545.60C435.50,545.50 437.20,545.00 437.80,544.60C438.50,544.20 439.40,544.10 439.90,544.50C440.40,544.80 441.10,544.60 441.40,544.10C442.20,542.90 444.40,543.20 446.30,544.80C447.40,545.80 448.00,545.70 449.00,544.50C449.70,543.70 451.00,543.00 451.90,543.00C452.80,543.00 454.50,542.30 455.60,541.50C457.50,540.20 457.90,540.30 460.00,542.50C461.30,543.90 462.00,545.00 461.60,545.00C461.10,545.00 461.30,545.70 462.00,546.60C464.20,549.10 454.80,557.60 441.70,565.00C422.90,575.70 390.10,593.90 378.60,600.20C372.50,603.50 366.50,606.90 365.10,607.90C363.70,608.90 357.60,612.30 351.50,615.50C345.50,618.70 335.10,624.50 328.50,628.40C321.90,632.40 314.40,636.80 311.90,638.30L307.30,640.90L305.40,638.90C303.60,636.90 303.50,633.30 303.00,559.60C302.40,476.30 302.40,476.50 297.20,476.50C291.20,476.40 291.50,480.20 291.20,397.40C291.00,354.50 291.30,321.30 291.80,320.70C293.00,319.00 293.20,313.20 292.00,312.50C290.80,311.70 290.70,302.30 291.90,301.60C293.00,300.90 293.10,217.90 292.00,216.50C291.50,215.90 291.00,204.70 290.90,191.60C290.70,160.90 289.50,162.40 307.20,171.20C314.50,174.90 327.90,181.20 337.00,185.30C361.50,196.40 365.50,198.40 368.90,201.30C370.70,202.70 372.70,203.70 373.40,203.40C375.00,202.80 380.00,205.10 381.90,207.40C384.20,210.20 391.10,213.20 392.50,212.00C393.50,211.20 394.50,211.80 396.50,214.20C398.00,216.00 399.90,217.50 400.70,217.60C401.50,217.80 403.30,218.90 404.60,220.10C405.90,221.30 407.00,222.00 407.00,221.60C407.00,221.20 408.40,222.00 410.10,223.40C411.80,224.80 413.80,226.00 414.70,226.00C415.50,226.00 417.50,226.90 419.10,228.10C420.80,229.30 422.80,229.90 423.90,229.50C425.20,229.10 427.00,229.90 429.20,231.70C434.90,236.50 441.70,241.00 442.40,240.30C442.70,240.00 443.80,240.50 444.90,241.40C446.20,242.60 447.00,242.80 447.50,242.00C448.00,241.20 448.90,241.40 450.40,242.80C454.70,246.70 461.60,250.60 463.30,250.20C464.40,250.00 466.20,250.80 467.50,252.00C468.70,253.20 470.40,254.20 471.10,254.40C471.90,254.50 473.20,255.00 474.00,255.50C477.10,257.50 480.30,259.00 481.50,259.00C482.20,259.00 483.90,259.90 485.40,261.10C486.80,262.20 488.00,262.80 488.00,262.40C488.00,262.00 488.80,262.40 489.70,263.20C490.70,264.00 493.60,265.50 496.20,266.50C498.80,267.50 501.50,268.90 502.10,269.60C502.70,270.40 503.70,270.70 504.20,270.40C504.70,270.10 505.90,270.50 506.80,271.30C508.80,273.00 512.10,274.40 513.40,274.10C513.90,274.00 515.00,274.20 515.90,274.60C516.80,275.00 518.40,275.40 519.50,275.50C520.70,275.60 524.20,277.30 527.30,279.30C530.50,281.40 533.70,283.00 534.50,283.00C535.20,283.00 536.10,283.40 536.50,284.00C536.80,284.50 537.70,284.70 538.40,284.40C539.10,284.10 540.30,284.60 541.00,285.50C541.70,286.30 542.70,287.00 543.20,287.00C543.80,287.00 545.40,287.90 546.80,288.90C548.30,289.90 550.00,290.90 550.50,291.00C553.20,291.60 556.70,293.30 558.20,294.70C559.20,295.60 560.00,296.00 560.00,295.60C560.00,295.30 561.10,295.70 562.40,296.50C563.70,297.40 565.20,298.00 565.60,297.80C566.10,297.70 567.60,298.20 569.00,299.00C570.40,299.80 572.10,300.50 572.90,300.60C573.60,300.80 575.30,301.90 576.60,303.10C577.90,304.30 579.00,305.00 579.00,304.50C579.00,304.00 579.50,304.10 580.10,304.70C580.70,305.30 581.90,305.60 582.70,305.30C583.40,305.00 584.90,305.50 585.90,306.40C587.00,307.40 588.40,308.00 589.20,307.90C591.60,307.40 605.30,313.00 606.50,315.00C606.90,315.60 607.60,315.80 608.10,315.50C608.60,315.10 611.60,316.20 614.70,317.80C627.00,323.90 634.20,327.00 635.00,326.50C635.50,326.20 637.50,327.10 639.60,328.50C643.30,331.00 644.20,331.30 647.10,331.10C647.90,331.00 664.70,338.40 684.30,347.50C703.90,356.60 720.40,364.00 720.80,364.00C721.30,364.00 722.60,365.00 723.80,366.30C726.00,368.60 726.00,368.70 724.10,370.40C723.00,371.40 706.20,380.40 686.80,390.40C648.70,410.00 643.20,413.20 642.30,415.80C642.00,416.70 641.10,418.20 640.30,419.10C639.20,420.50 639.20,420.90 640.50,422.00C643.10,424.20 638.70,426.30 723.90,381.30C736.20,374.80 746.30,369.00 746.30,368.50C746.30,367.30 743.20,365.80 714.00,352.50C694.10,343.40 679.90,336.80 650.00,322.80C645.30,320.60 637.20,316.90 632.00,314.50C626.80,312.10 614.90,306.50 605.50,302.00C596.20,297.50 581.50,290.50 573.00,286.50C564.50,282.50 551.20,276.20 543.50,272.50C524.60,263.40 510.90,257.00 510.60,257.00C510.40,257.00 504.20,254.10 496.90,250.60C474.80,240.10 454.70,230.70 433.00,220.70C399.90,205.40 356.10,185.10 348.00,181.30C341.00,178.00 323.70,170.10 299.00,159.00C293.20,156.40 287.00,153.60 285.30,152.60C283.50,151.70 282.00,151.30 281.90,151.70Z M384.50,319.20C383.50,321.80 384.50,485.00 385.50,485.10C387.30,485.20 399.40,451.00 398.00,449.60C397.40,449.00 397.00,449.00 397.00,449.50C397.00,449.90 396.20,449.50 395.10,448.60C393.30,447.00 393.30,445.00 393.70,397.20C394.10,363.80 394.60,347.10 395.30,346.10C397.50,343.40 401.20,342.80 403.40,344.80C405.70,346.90 416.00,352.30 416.00,351.40C416.00,351.10 417.20,351.80 418.70,352.90C420.10,354.10 423.00,355.30 425.10,355.60C427.20,356.00 429.90,357.30 431.10,358.60C432.30,359.90 434.10,361.00 434.90,361.00C435.80,361.00 437.80,361.90 439.40,362.90C441.10,364.00 442.70,364.70 443.10,364.40C443.60,364.10 445.80,365.30 448.10,366.90C450.40,368.60 452.70,369.70 453.20,369.40C453.70,369.10 454.70,369.40 455.50,370.00C456.30,370.70 457.00,370.90 457.00,370.50C457.00,370.10 457.60,370.30 458.30,370.90C459.10,371.50 461.90,372.20 464.50,372.50C467.40,372.80 470.20,373.80 471.50,375.00C474.10,377.50 482.90,382.00 485.20,382.00C486.10,382.00 487.20,382.50 487.50,383.00C488.10,384.00 497.50,388.60 497.50,387.90C497.50,387.70 499.10,388.60 501.00,390.00C502.90,391.40 505.40,393.00 506.50,393.60C507.60,394.20 510.70,395.90 513.40,397.40C516.10,398.80 518.90,400.50 519.60,401.10C520.40,401.70 521.00,401.90 521.00,401.50C521.00,401.10 521.70,401.30 522.50,402.00C523.30,402.70 524.00,403.00 524.00,402.60C524.00,402.20 526.60,403.60 529.80,405.60C532.90,407.60 535.60,409.20 535.80,409.10C536.40,408.60 544.90,413.20 546.00,414.60C546.70,415.30 548.40,416.00 549.70,416.00C551.10,416.00 553.60,417.10 555.20,418.50C556.80,419.90 558.60,420.80 559.00,420.50C559.50,420.20 560.10,420.40 560.50,420.90C560.80,421.40 563.40,423.00 566.30,424.40C569.10,425.80 573.30,428.30 575.50,430.00C577.70,431.60 583.30,434.80 588.00,437.00C592.70,439.30 597.90,441.80 599.50,442.60C601.20,443.40 602.70,443.90 603.00,443.80C603.30,443.60 605.50,445.00 607.80,446.80C610.10,448.70 612.00,449.90 612.00,449.50C612.00,449.10 612.60,449.20 613.30,449.70C613.90,450.20 615.20,450.60 616.00,450.50C616.80,450.40 618.70,451.20 620.20,452.20C621.70,453.20 623.20,453.90 623.70,453.80C624.20,453.60 626.60,455.20 629.10,457.20C631.60,459.30 634.70,461.20 636.10,461.40C637.40,461.70 638.70,461.90 639.00,462.00C639.30,462.20 639.90,462.20 640.30,462.10C640.70,462.00 642.60,463.10 644.40,464.50C646.20,465.90 648.00,466.70 648.30,466.30C648.70,466.00 650.00,466.60 651.30,467.60C652.50,468.70 654.20,469.60 655.00,469.50C655.80,469.40 657.90,470.10 659.50,470.90C661.20,471.70 663.00,472.40 663.50,472.40C664.10,472.50 666.80,474.10 669.50,476.20C672.30,478.20 675.00,479.90 675.50,480.00C676.10,480.10 677.20,480.80 678.10,481.60C679.30,482.60 679.90,482.70 680.80,481.80C681.70,480.90 682.40,481.10 683.80,482.30C684.80,483.20 686.00,483.70 686.30,483.40C686.90,482.80 692.40,485.30 707.30,492.70C709.90,494.00 712.00,494.80 712.00,494.50C712.00,494.10 713.20,494.80 714.60,495.90C716.00,497.00 717.70,497.70 718.50,497.40C719.80,496.80 751.90,512.90 755.20,515.80C757.70,517.90 756.50,519.00 744.10,525.60C688.40,555.40 639.60,582.90 593.50,610.50C586.90,614.40 577.00,620.30 571.50,623.50C561.40,629.40 551.70,636.10 550.50,638.00C550.20,638.50 550.90,639.40 552.20,639.90C553.50,640.40 555.70,642.10 557.30,643.70C560.60,647.30 560.00,648.00 550.50,652.80C544.80,655.60 502.70,678.70 476.00,693.70C469.10,697.60 460.80,702.20 457.50,704.00C451.70,707.20 437.50,715.30 399.50,737.00C389.60,742.70 376.60,750.10 370.50,753.50C341.60,769.70 321.90,781.30 322.50,781.80C323.50,782.80 326.40,782.90 327.60,781.90C328.60,781.10 333.00,784.50 332.30,785.60C331.40,786.90 332.40,786.70 335.30,785.10C344.50,779.90 374.30,763.00 415.50,739.50C440.80,725.10 466.00,710.80 471.50,707.80C477.00,704.70 493.20,695.70 507.50,687.80C521.80,679.80 543.40,667.90 555.50,661.30C567.60,654.70 584.70,645.30 593.50,640.50C602.30,635.60 615.10,628.70 622.00,625.00C628.90,621.30 636.30,617.30 638.50,616.00C640.70,614.80 644.50,612.60 647.00,611.20C652.90,607.90 654.10,606.90 653.50,606.00C652.40,604.20 636.80,611.00 592.00,632.80C582.90,637.20 572.60,642.00 569.10,643.50L562.80,646.20L560.60,644.00L558.50,641.90L561.50,639.30C564.10,637.10 577.60,629.30 619.50,605.60C625.60,602.10 639.30,594.40 650.00,588.30C660.70,582.20 681.90,570.50 697.00,562.30C743.90,536.70 774.40,519.80 775.80,518.70C777.60,517.20 778.50,517.80 743.50,499.70C709.30,482.10 668.20,460.80 653.50,453.00C648.60,450.40 639.60,445.60 633.50,442.50C627.50,439.30 616.40,433.30 609.00,429.20C601.60,425.10 593.00,420.40 590.00,418.70C587.00,417.10 582.70,414.70 580.50,413.50C578.30,412.30 570.70,408.20 563.50,404.50C556.40,400.80 548.70,396.70 546.50,395.50C544.30,394.30 533.50,389.00 522.50,383.70C511.50,378.50 494.40,370.30 484.50,365.50C474.60,360.70 463.60,355.40 460.00,353.80C456.40,352.10 438.30,343.40 419.80,334.40C383.40,316.70 385.20,317.40 384.50,319.20Z M634.50,389.70C626.80,393.20 617.40,397.50 613.50,399.20C604.50,403.10 604.30,403.30 608.00,406.00L611.20,408.20L614.30,405.30C617.30,402.50 641.20,389.00 645.80,387.60C648.20,386.80 650.40,384.40 649.30,383.70C648.90,383.40 642.20,386.10 634.50,389.70Z M604.50,567.40C600.10,569.80 582.80,578.70 566.00,587.30C549.20,595.80 531.90,604.80 527.50,607.20L519.50,611.50L519.20,616.00C519.00,618.40 518.40,621.00 517.80,621.80C516.70,623.10 485.30,641.00 450.40,660.30C439.90,666.10 413.60,680.90 391.90,693.20C370.20,705.60 349.40,717.40 345.70,719.50C338.70,723.30 337.80,725.00 342.10,726.00C347.00,727.30 357.80,722.00 402.00,697.00C414.40,690.00 434.90,678.50 447.50,671.50C523.80,629.10 526.00,627.60 527.60,619.30C528.40,615.00 528.90,614.60 549.00,604.00C571.80,591.80 586.10,583.40 597.70,575.40C602.80,571.80 607.40,569.10 607.90,569.40C608.30,569.70 609.90,568.60 611.40,567.10C615.60,562.70 613.30,562.80 604.50,567.40Z M321.00,667.30C314.10,671.10 304.90,676.40 300.60,678.90L292.70,683.50L292.90,733.90C293.00,761.70 293.40,784.80 293.70,785.30C294.00,785.70 294.90,785.50 295.80,784.80C296.80,784.00 298.70,782.90 300.30,782.20L303.00,781.00L303.10,735.80C303.10,710.90 303.30,689.60 303.50,688.60C304.10,685.70 306.00,684.20 318.70,676.90C329.10,670.90 330.70,670.30 332.10,671.60C332.90,672.40 334.00,672.70 334.30,672.30C335.30,671.40 335.20,661.20 334.20,660.60C333.80,660.40 327.90,663.40 321.00,667.30Z M293.70,803.70C292.70,804.60 292.80,807.80 293.90,808.40C294.30,808.70 295.50,808.40 296.40,807.70C298.00,806.50 298.00,806.30 296.20,804.70C295.20,803.80 294.00,803.30 293.70,803.70Z"/>
<path fill-rule="evenodd" fill="url(#gh)" filter="url(#soft2)" d="M317.00,169.50C316.30,170.30 314.90,171.00 313.90,171.00C309.90,171.00 311.30,173.10 317.20,175.80C327.80,180.70 446.70,235.80 461.00,242.50C468.40,246.00 479.50,251.20 485.50,254.00C491.60,256.90 503.70,262.60 512.50,266.70C521.30,270.90 546.10,282.60 567.50,292.80C612.50,314.20 608.30,312.20 669.50,340.40C723.90,365.40 727.50,367.20 727.40,368.50C727.30,369.00 711.30,377.80 691.80,388.00C641.10,414.40 643.60,412.90 643.20,417.30C643.00,419.90 643.30,421.20 644.40,421.60C645.90,422.20 743.40,371.90 746.40,369.00C747.30,368.10 740.30,364.50 717.50,354.30C708.30,350.10 670.70,332.70 634.50,315.80C626.30,311.90 606.50,302.60 590.50,295.00C574.60,287.40 556.60,278.90 550.50,276.00C527.30,265.00 451.10,229.30 438.90,223.70C435.80,222.30 422.70,216.20 409.90,210.20C378.70,195.60 364.20,188.90 341.50,178.60C331.10,173.80 321.70,169.50 320.80,169.00C318.50,167.70 318.50,167.70 317.00,169.50Z M282.40,170.90C281.70,171.60 282.00,484.60 282.70,485.30C283.00,485.70 284.80,485.00 286.70,483.90C289.30,482.30 290.40,482.10 291.40,482.90C292.30,483.70 293.00,483.70 293.40,483.10C293.80,482.60 293.60,481.90 293.10,481.60C291.20,480.40 291.10,470.30 290.80,329.50C290.70,249.70 290.40,181.40 290.10,177.60L289.50,170.70L286.20,170.60C284.30,170.50 282.60,170.70 282.40,170.90Z M384.70,318.70C383.60,319.80 383.90,483.80 385.00,484.50C386.20,485.30 388.20,481.30 391.40,471.00C392.90,466.30 394.40,461.80 394.70,461.00C395.80,458.40 395.70,457.50 394.20,455.80C392.10,453.30 393.40,336.30 395.50,334.10C397.20,332.30 397.10,332.30 433.00,349.50C531.30,396.70 535.10,398.60 536.70,402.10C537.60,404.00 544.90,408.10 567.70,419.50C601.20,436.20 699.70,486.20 716.50,495.00C722.60,498.10 733.80,504.00 741.50,508.00C756.80,515.90 758.20,516.80 757.50,518.00C757.20,518.50 750.60,522.30 742.70,526.50C666.70,567.70 631.70,587.60 632.30,589.30C632.60,590.00 633.30,590.40 634.00,590.20C634.70,590.00 636.20,590.80 637.40,591.90L639.50,593.90L662.50,581.10C675.20,574.10 700.60,560.10 719.00,550.00C782.40,515.30 778.70,517.60 775.30,516.30C774.30,515.90 766.10,511.70 757.00,507.00C747.90,502.20 730.20,493.00 717.50,486.50C674.10,464.30 625.90,438.80 601.30,425.20C564.40,404.70 537.10,390.70 499.00,372.60C469.20,358.40 434.70,341.90 410.60,330.10C396.90,323.50 385.60,318.00 385.50,318.00C385.40,318.00 385.00,318.30 384.70,318.70Z M293.60,496.70C292.80,497.50 292.80,658.40 293.60,659.20C293.90,659.60 297.10,658.00 300.60,655.80L307.10,651.70L305.10,649.60C303.20,647.50 303.10,645.90 303.00,584.00C302.80,511.70 302.70,508.40 299.70,510.90C297.40,512.80 296.00,510.00 296.00,503.40C296.00,497.50 295.20,495.20 293.60,496.70Z M418.90,540.60C382.90,558.50 352.90,573.70 352.20,574.20C351.20,575.10 351.20,575.60 352.40,576.90C353.20,577.80 354.00,578.90 354.20,579.50C354.40,580.00 354.70,580.40 355.00,580.30C356.50,579.80 410.00,553.60 445.10,536.20L485.80,516.00L491.00,517.00C493.90,517.60 497.90,518.00 500.00,518.00C502.40,518.00 504.30,518.70 505.40,519.90C507.60,522.30 506.50,523.20 483.50,537.00C460.10,551.00 456.40,554.20 459.20,557.60C459.70,558.30 459.90,559.20 459.80,559.60C458.70,562.90 467.40,557.90 514.50,528.20C522.80,523.00 530.60,518.10 531.90,517.30C535.40,515.10 533.60,514.20 522.00,512.60C511.00,511.00 486.60,508.00 485.20,508.00C484.70,508.00 454.90,522.70 418.90,540.60Z M451.60,560.90C451.20,561.40 451.40,562.10 452.00,562.50C452.60,562.90 452.80,563.50 452.50,564.00C451.60,565.50 453.70,566.10 454.90,564.60C455.70,563.60 455.50,562.90 454.10,561.60C453.00,560.60 452.00,560.30 451.60,560.90Z M531.50,605.40L519.50,611.70L519.20,616.30C518.80,622.70 519.00,622.50 458.50,656.00C450.30,660.50 429.60,672.10 412.70,681.80L381.90,699.30L384.60,702.10L387.30,705.00L390.40,703.10C392.10,702.10 401.40,696.90 411.00,691.50C501.50,641.20 519.50,630.90 522.70,627.70C524.00,626.50 525.80,623.00 526.70,620.00C528.50,614.50 528.50,614.50 537.80,609.70C546.40,605.20 547.00,604.70 545.70,603.20C544.80,602.30 544.10,601.10 544.20,600.70C544.20,598.90 543.10,599.30 531.50,605.40Z M642.60,609.10C635.50,612.00 630.70,614.20 601.70,628.40C587.50,635.30 575.70,641.00 575.40,641.00C573.30,641.00 562.00,647.20 562.50,648.00C562.90,648.60 563.60,648.80 564.20,648.40C564.70,648.10 566.40,648.90 567.80,650.30L570.50,652.90L579.50,647.90C584.50,645.10 597.70,637.90 609.00,631.80C641.60,614.20 651.00,608.80 650.40,607.90C649.60,606.60 648.10,606.90 642.60,609.10Z M304.00,677.00L293.50,682.80L293.50,697.40C293.50,706.50 293.90,712.00 294.50,712.00C295.10,712.00 295.60,710.10 295.80,707.80C296.00,705.50 296.50,703.10 297.00,702.50C297.50,701.90 297.50,700.80 297.00,700.00C296.40,699.10 296.80,697.80 298.10,696.20C299.30,694.60 299.70,693.30 299.10,692.60C297.20,690.30 300.10,687.00 308.00,682.40C315.90,677.80 317.00,676.70 315.00,675.50C314.20,675.00 314.20,674.40 315.00,673.50C317.60,670.40 313.80,671.60 304.00,677.00Z"/>
</g>
</svg>