<svg xmlns="http://www.w3.org/2000/svg" width="1024" height="1024" viewBox="0 0 1024 1024">
<defs><linearGradient id="gb" gradientUnits="userSpaceOnUse" x1="512" y1="149" x2="512" y2="810">
<stop offset="0.00" stop-color="#EC85FF"/>
<stop offset="0.08" stop-color="#E377FF"/>
<stop offset="0.30" stop-color="#D761FF"/>
<stop offset="0.53" stop-color="#CC55FF"/>
<stop offset="0.76" stop-color="#A342FF"/>
<stop offset="1.00" stop-color="#8E41FF"/>
</linearGradient><linearGradient id="gm" gradientUnits="userSpaceOnUse" x1="512" y1="149" x2="512" y2="810">
<stop offset="0.00" stop-color="#F5A2FF"/>
<stop offset="0.23" stop-color="#F07EFF"/>
<stop offset="0.46" stop-color="#CA75FF"/>
<stop offset="0.72" stop-color="#B266FF"/>
<stop offset="1.00" stop-color="#A25BFF"/>
</linearGradient><linearGradient id="gh" gradientUnits="userSpaceOnUse" x1="512" y1="149" x2="512" y2="810">
<stop offset="0.00" stop-color="#F8D2FF"/>
<stop offset="0.17" stop-color="#F7CDFF"/>
<stop offset="0.35" stop-color="#F5C9FF"/>
<stop offset="0.55" stop-color="#E097FF"/>
<stop offset="0.75" stop-color="#C77FFF"/>
<stop offset="1.00" stop-color="#C074FF"/>
</linearGradient></defs>
<path fill-rule="evenodd" fill="url(#gb)" d="M281.00,318.50L281.00,487.00L282.30,487.00L283.50,486.90L287.50,484.50L291.50,482.00L292.00,482.00L292.50,482.00L292.20,571.50L292.00,661.00L292.60,661.00L293.30,661.00L309.90,651.30L326.50,641.70L344.50,631.00L362.50,620.30L397.20,600.20L431.90,580.00L453.70,566.80L475.50,553.70L487.50,546.20L499.50,538.70L504.50,535.50L509.50,532.30L521.00,525.00L532.50,517.80L535.00,516.20L537.50,514.60L534.40,513.80L531.30,513.00L508.40,510.00L485.50,507.00L439.00,530.00L392.50,553.10L362.50,567.90L332.50,582.70L332.20,405.70L332.00,228.70L332.30,228.30L332.70,228.00L353.10,237.60L373.50,247.20L392.00,255.70L410.50,264.20L426.90,272.10L443.30,280.00L443.50,280.00L443.80,280.00L459.70,287.60L475.50,295.20L483.50,299.00L491.50,302.80L523.50,318.00L555.50,333.30L561.90,336.20L568.30,339.10L572.60,334.90L576.90,330.70L583.20,333.80L589.50,336.90L606.50,345.00L623.50,353.20L644.50,363.20L665.50,373.20L665.80,373.50L666.20,373.90L655.50,378.90L644.70,384.00L623.90,393.60L603.00,403.30L603.00,404.00L603.00,404.70L622.80,414.80L642.70,424.90L694.00,397.90L745.30,370.90L747.20,369.60L749.10,368.20L743.30,365.50L737.50,362.80L719.50,354.50L701.50,346.30L659.50,326.80L617.50,307.20L584.50,291.50L551.50,275.80L517.50,259.80L483.50,243.80L468.00,236.50L452.50,229.20L438.00,222.50L423.50,215.80L400.50,205.00L377.50,194.30L342.50,178.00L307.50,161.80L294.80,155.90L282.20,150.00L281.60,150.00L281.00,150.00L281.00,318.50Z M383.00,404.50L383.00,492.00L383.50,492.00L383.90,492.00L385.40,489.20L386.80,486.50L392.50,471.00L398.10,455.50L408.70,426.50L419.20,397.50L420.70,393.00L422.20,388.50L423.10,386.10L424.00,383.80L425.30,384.80L426.50,385.70L490.50,418.00L554.50,450.30L576.50,462.00L598.50,473.80L615.00,482.70L631.50,491.70L655.00,504.70L678.50,517.70L683.50,520.50L688.50,523.30L688.80,523.50L689.10,523.70L684.30,526.00L679.50,528.20L634.50,551.20L589.50,574.20L570.00,584.30L550.50,594.30L535.50,602.30L520.50,610.30L519.30,611.30L518.00,612.20L518.00,616.60L518.00,620.90L513.80,623.80L509.50,626.70L478.50,644.00L447.50,661.20L442.50,664.00L437.50,666.70L407.50,683.70L377.50,700.70L357.00,712.40L336.50,724.00L336.20,691.50L336.00,659.00L335.20,659.00L334.50,659.00L313.50,670.80L292.50,682.60L292.20,746.30L292.00,810.00L293.20,810.00L294.50,810.00L298.50,807.70L302.50,805.40L323.00,793.50L343.50,781.70L375.00,763.70L406.50,745.70L435.00,729.50L463.50,713.20L494.00,696.20L524.50,679.30L554.00,663.00L583.50,646.70L615.00,629.50L646.50,612.30L650.80,609.70L655.00,607.00L655.00,606.00L655.00,605.00L653.60,605.00L652.10,605.00L644.80,607.60L637.50,610.20L626.50,615.50L615.50,620.80L596.60,629.90L577.80,639.10L572.10,641.50L566.30,643.90L561.40,643.20L556.50,642.40L567.00,636.60L577.50,630.70L589.50,623.70L601.50,616.80L630.00,600.60L658.50,584.40L673.00,576.30L687.50,568.30L705.50,558.50L723.50,548.60L749.50,534.20L775.50,519.90L776.80,518.60L778.20,517.30L756.30,506.00L734.50,494.70L695.00,474.30L655.50,453.80L651.50,451.50L647.50,449.30L636.50,443.50L625.50,437.70L607.00,427.50L588.50,417.30L572.50,408.80L556.50,400.20L537.00,390.50L517.60,380.80L494.50,369.80L471.50,358.70L460.50,353.50L449.50,348.20L417.30,332.60L385.00,317.00L384.00,317.00L383.00,317.00L383.00,404.50Z"/>
<path fill-rule="evenodd" fill="url(#gm)" d="M282.00,158.40L282.50,164.50L282.80,158.80L283.10,153.10L288.70,155.50C295.50,158.60 296.90,158.20 290.20,155.10C281.70,151.20 281.40,151.30 282.00,158.40Z M296.50,159.00C296.80,159.50 297.70,160.00 298.30,160.00C299.00,160.00 300.90,160.70 302.50,161.60C306.30,163.60 310.00,165.10 310.00,164.50C310.00,164.10 297.30,158.00 296.40,158.00C296.10,158.00 296.20,158.40 296.50,159.00Z M311.50,166.00C311.80,166.50 312.80,167.00 313.60,167.00C314.40,167.00 315.00,167.40 315.00,167.80C315.00,168.30 313.00,168.50 310.60,168.30C307.40,167.90 306.10,168.20 305.70,169.40C305.30,170.50 305.60,170.70 306.70,170.30C307.60,169.90 308.10,170.10 307.80,170.60C307.00,171.90 320.30,171.10 321.50,169.80C322.20,169.00 322.10,168.90 321.30,169.40C320.70,169.70 318.50,168.90 316.40,167.50C312.60,164.90 310.40,164.20 311.50,166.00Z M282.70,169.70C283.00,170.40 284.50,171.00 286.00,171.00C287.50,171.00 289.00,170.40 289.30,169.70C289.60,168.90 288.60,168.50 286.00,168.50C283.40,168.50 282.40,168.90 282.70,169.70Z M290.40,189.00C290.40,199.20 290.60,203.30 290.70,198.20C290.90,193.20 290.90,184.80 290.70,179.70C290.60,174.70 290.40,178.80 290.40,189.00Z M482.00,254.40C482.00,254.90 487.40,258.00 488.30,258.00C488.50,258.00 488.70,257.40 488.70,256.60C488.70,255.80 488.10,255.40 487.40,255.70C486.70,255.90 485.20,255.70 484.10,255.00C482.90,254.40 482.00,254.20 482.00,254.40Z M506.20,264.80C505.40,265.40 506.20,266.20 508.70,267.30C511.70,268.70 512.10,268.70 510.60,267.50C509.50,266.70 508.20,266.00 507.70,266.00C507.30,266.00 507.20,265.50 507.50,265.00C508.20,263.80 507.90,263.80 506.20,264.80Z M553.60,288.90C554.10,289.40 555.60,290.10 557.00,290.40L559.50,291.10L557.00,289.60C554.20,287.90 552.00,287.50 553.60,288.90Z M403.10,338.10C406.70,340.00 409.80,340.70 406.70,338.90C405.80,338.30 405.10,337.60 405.40,337.20C405.60,336.80 404.40,336.40 402.70,336.40L399.70,336.30L403.10,338.10Z M415.30,344.00C417.90,345.60 420.00,347.50 420.00,348.20C420.00,349.20 420.20,349.20 420.90,348.10C421.60,347.00 422.00,347.10 422.90,348.60C423.50,349.70 424.00,350.00 424.00,349.30C424.00,348.60 424.80,348.30 425.80,348.60C426.70,348.90 424.10,347.30 420.00,345.10C411.10,340.40 408.70,339.80 415.30,344.00Z M429.70,350.80C430.70,351.50 432.20,352.70 433.20,353.40C434.10,354.20 435.10,354.60 435.40,354.30C435.70,353.90 436.00,354.10 436.00,354.70C436.00,355.20 437.50,355.70 439.30,355.70C442.40,355.80 442.40,355.70 437.50,353.40C434.80,352.10 432.60,350.70 432.70,350.20C432.80,349.80 431.70,349.50 430.40,349.50C428.20,349.50 428.10,349.60 429.70,350.80Z M448.70,360.30C448.40,361.10 449.20,361.70 450.90,361.80C452.30,361.90 455.90,363.20 458.80,364.60C461.70,366.00 464.30,367.00 464.60,366.80C464.80,366.50 463.20,365.50 461.00,364.50C458.80,363.50 457.30,362.30 457.60,361.90C457.90,361.40 457.30,361.30 456.40,361.70C455.20,362.10 454.90,362.00 455.40,361.20C455.80,360.40 455.60,360.20 454.60,360.60C453.80,360.90 452.30,360.70 451.20,360.10C449.70,359.30 449.10,359.40 448.70,360.30Z M467.80,369.10C469.60,369.60 470.90,370.40 470.60,370.80C470.40,371.20 471.40,371.60 472.80,371.70C475.40,371.80 475.30,371.70 472.00,369.90C470.10,368.90 467.60,368.10 466.50,368.10C465.30,368.20 465.80,368.60 467.80,369.10Z M488.90,379.00C492.40,380.70 495.50,382.00 495.90,382.00C497.10,381.90 485.40,376.10 484.00,376.10C483.20,376.10 485.40,377.40 488.90,379.00Z M649.00,383.00C643.20,385.70 638.00,388.30 637.40,388.90C636.70,389.40 635.90,389.60 635.60,389.30C635.30,388.90 635.00,389.30 635.00,390.00C635.00,390.70 634.70,391.00 634.30,390.70C634.00,390.30 632.20,391.00 630.30,392.10C628.50,393.20 627.00,393.90 627.00,393.50C627.00,393.20 626.30,393.60 625.40,394.40C624.60,395.30 623.40,395.80 622.90,395.50C622.40,395.10 622.00,395.30 622.00,395.90C622.00,397.40 614.10,401.20 612.40,400.60C611.40,400.20 611.20,400.40 611.60,401.20C612.10,402.00 611.80,402.10 610.70,401.70C609.80,401.40 608.40,401.80 607.50,402.60C606.70,403.40 605.60,403.80 605.00,403.50C604.50,403.20 604.00,403.10 604.00,403.40C604.00,403.70 605.90,404.90 608.30,406.00C612.30,408.00 612.40,408.00 610.00,406.10L607.60,404.20L611.50,403.50C613.70,403.10 618.90,401.00 623.00,398.70C627.10,396.50 632.60,393.60 635.30,392.30C637.90,391.00 640.00,389.60 640.00,389.10C640.00,388.60 642.00,387.50 644.40,386.60C649.20,384.70 660.00,379.10 660.00,378.40C660.00,377.80 660.40,377.60 649.00,383.00Z M497.30,383.60C497.30,384.40 498.30,385.00 499.70,385.00C501.00,385.00 502.00,385.40 502.00,386.00C502.00,386.50 502.60,387.00 503.30,387.00C504.00,387.00 506.30,387.90 508.50,389.00C513.00,391.30 515.90,391.70 511.70,389.40C510.20,388.60 509.20,387.60 509.40,387.10C509.70,386.70 508.90,386.40 507.70,386.40C506.50,386.50 505.60,386.00 505.70,385.30C505.90,384.60 505.40,384.30 504.60,384.60C503.80,384.90 501.90,384.50 500.30,383.60C497.70,382.30 497.30,382.30 497.30,383.60Z M393.40,401.50C393.40,408.60 393.50,411.40 393.70,407.70C393.90,404.00 393.90,398.10 393.70,394.70C393.50,391.30 393.40,394.30 393.40,401.50Z M515.00,392.10C515.00,392.80 520.10,395.40 523.80,396.50C525.00,396.80 526.00,397.60 526.00,398.10C526.00,398.70 526.50,398.80 527.00,398.50C527.60,398.20 528.00,398.60 528.00,399.40C528.00,400.30 528.60,401.10 529.30,401.20C529.90,401.20 531.00,401.40 531.50,401.40C532.10,401.50 533.00,401.90 533.70,402.30C534.50,402.80 534.80,402.40 534.70,401.10C534.70,400.00 534.20,399.40 533.80,399.60C532.70,400.30 528.90,397.50 529.70,396.60C530.10,396.20 529.60,396.20 528.60,396.60C527.30,397.10 526.90,397.00 527.40,396.20C527.90,395.40 527.50,395.20 526.40,395.70C525.20,396.10 524.90,396.00 525.40,395.20C525.90,394.40 525.50,394.20 524.40,394.70C523.20,395.10 522.90,395.00 523.40,394.20C523.90,393.40 523.50,393.20 522.40,393.70C521.20,394.10 520.90,394.00 521.40,393.20C521.90,392.40 521.50,392.20 520.40,392.70C519.40,393.00 518.90,392.90 519.20,392.40C519.60,391.90 518.70,391.50 517.40,391.50C516.10,391.50 515.00,391.80 515.00,392.10Z M543.20,409.80C543.80,410.50 545.90,411.80 547.80,412.60C551.80,414.20 553.30,414.40 550.70,412.90C549.80,412.30 549.20,411.50 549.50,410.90C549.90,410.40 549.30,410.30 548.40,410.70C547.20,411.10 546.90,411.00 547.40,410.20C547.90,409.40 547.50,409.20 546.40,409.70C545.40,410.10 544.90,409.90 545.30,409.40C545.60,408.90 545.00,408.40 544.00,408.40C542.50,408.40 542.40,408.70 543.20,409.80Z M642.00,418.20C642.00,420.30 642.20,422.00 642.40,422.00C643.30,422.00 643.60,417.00 642.90,415.80C642.30,415.00 642.00,415.90 642.00,418.20Z M631.00,417.50C631.00,418.20 639.10,422.20 639.60,421.80C639.80,421.50 637.90,420.40 635.50,419.20C633.00,418.00 631.00,417.20 631.00,417.50Z M563.00,419.50C563.00,420.20 569.10,423.20 569.60,422.80C569.80,422.50 568.40,421.60 566.50,420.70C564.60,419.80 563.00,419.20 563.00,419.50Z M576.10,424.90C575.00,425.60 576.30,426.60 580.90,429.00C584.40,430.70 587.40,431.90 587.60,431.70C587.90,431.50 586.50,430.50 584.50,429.60C582.60,428.60 581.20,427.50 581.50,427.00C581.90,426.40 581.30,426.30 580.40,426.70C579.20,427.10 578.90,427.00 579.40,426.20C579.90,425.40 579.50,425.20 578.40,425.70C577.20,426.10 576.90,426.00 577.40,425.20C578.30,423.80 578.00,423.70 576.10,424.90Z M589.00,433.00C589.00,433.30 591.10,434.40 593.70,435.50C596.30,436.60 598.70,437.60 599.00,437.80C599.40,437.90 599.70,437.40 599.70,436.60C599.70,435.80 599.10,435.40 598.20,435.80C597.20,436.10 596.90,435.90 597.40,435.20C597.90,434.40 597.50,434.20 596.40,434.70C595.20,435.10 594.90,435.00 595.40,434.20C595.90,433.40 595.50,433.20 594.40,433.70C593.40,434.00 592.90,433.90 593.20,433.40C593.60,432.90 592.70,432.50 591.40,432.50C590.10,432.50 589.00,432.70 589.00,433.00Z M603.50,439.90C604.80,441.20 620.50,449.00 621.60,449.00C622.10,448.90 620.30,447.80 617.70,446.40C615.10,445.00 613.20,443.50 613.50,443.00C613.90,442.40 613.40,442.30 612.40,442.70C611.20,443.10 610.90,443.00 611.40,442.20C611.90,441.40 611.50,441.20 610.40,441.70C609.10,442.20 608.90,442.00 609.50,441.00C610.00,440.20 609.90,439.90 609.20,440.40C608.60,440.70 606.90,440.50 605.30,439.90C603.60,439.30 602.90,439.30 603.50,439.90Z M623.00,449.50C623.00,450.20 633.10,455.20 633.60,454.80C633.80,454.60 631.50,453.20 628.50,451.70C625.50,450.20 623.00,449.20 623.00,449.50Z M394.60,459.20C393.80,460.40 393.30,461.70 393.60,462.20C394.30,463.30 395.10,462.70 395.40,460.80C395.50,460.10 395.90,458.90 396.30,458.20C397.70,456.10 396.20,456.90 394.60,459.20Z M639.00,457.80C639.10,458.60 655.00,466.30 655.60,465.80C655.80,465.60 652.10,463.50 647.50,461.20C642.80,458.90 639.00,457.30 639.00,457.80Z M291.30,471.50C291.30,474.80 291.50,476.00 291.70,474.20C291.90,472.40 291.90,469.70 291.70,468.20C291.50,466.70 291.30,468.20 291.30,471.50Z M295.40,479.20C294.10,480.30 293.20,481.50 293.40,481.90C293.70,482.30 294.00,486.50 294.10,491.30C294.20,496.10 294.50,500.00 294.90,500.00C295.20,500.00 295.70,503.90 295.80,508.80C296.20,518.60 296.00,517.90 298.90,518.50C300.80,518.80 301.00,518.40 301.20,514.70L301.30,510.50L302.10,515.00C302.90,520.00 302.30,489.30 301.40,481.90C300.70,476.80 299.30,476.20 295.40,479.20Z M484.60,517.50C483.10,518.30 481.30,518.70 480.70,518.30C480.10,517.90 480.00,518.20 480.50,519.00C481.10,520.00 480.90,520.20 479.60,519.70C478.50,519.20 478.10,519.40 478.60,520.20C479.10,521.00 478.80,521.10 477.60,520.70C476.50,520.20 476.10,520.40 476.60,521.20C477.10,522.00 476.80,522.10 475.70,521.70C473.90,521.00 473.80,522.90 475.50,524.30C476.10,524.80 475.60,524.90 474.50,524.60C473.40,524.30 471.80,524.50 471.00,525.00C469.40,526.00 471.20,526.50 475.30,526.10C476.20,526.00 477.30,526.60 477.60,527.40C478.00,528.40 479.40,529.00 481.40,529.00C483.20,529.00 485.20,529.60 485.90,530.20C486.70,530.90 487.00,531.00 486.70,530.50C486.40,529.90 487.00,529.30 488.10,529.30C489.10,529.20 490.00,529.60 490.00,530.10C490.00,530.70 490.80,530.70 492.00,530.00C493.10,529.40 494.60,529.20 495.20,529.60C495.90,530.00 496.00,529.90 495.60,529.20C494.80,527.90 498.60,525.60 500.00,526.50C500.60,526.90 500.90,526.60 500.80,525.80C500.60,525.10 501.30,524.60 502.20,524.60C503.20,524.70 503.70,524.40 503.40,523.90C502.90,523.10 504.30,522.60 506.30,522.90C506.70,522.90 507.00,522.50 507.00,521.90C507.00,521.40 507.50,521.20 508.00,521.50C508.60,521.80 509.00,521.90 509.00,521.60C509.00,519.90 502.50,518.20 497.30,518.60C493.00,518.90 492.00,518.80 493.50,518.00C495.00,517.30 494.40,517.20 491.10,517.60C488.00,518.00 487.00,517.90 487.40,517.10C488.30,515.70 488.10,515.70 484.60,517.50Z M296.50,521.00C296.20,521.50 297.00,522.10 298.20,522.30L300.50,522.70L298.30,522.90C296.50,523.00 296.00,523.60 296.00,525.60C296.00,527.80 296.40,528.10 298.80,527.80C300.30,527.60 301.40,527.20 301.30,526.70C301.10,526.30 301.00,524.70 301.00,523.20C301.00,520.50 297.80,518.90 296.50,521.00Z M463.50,528.90C461.30,530.00 459.80,530.90 460.10,530.90C461.10,531.00 468.00,528.00 468.00,527.50C468.00,526.80 468.00,526.80 463.50,528.90Z M472.00,528.00C472.00,528.40 473.70,529.20 475.70,529.80C479.10,530.80 479.20,530.80 477.70,529.30C476.10,527.60 472.00,526.70 472.00,528.00Z M296.50,530.10C297.10,531.00 301.00,530.90 301.00,529.90C301.00,529.50 299.90,529.20 298.50,529.20C297.20,529.20 296.30,529.60 296.50,530.10Z M296.20,538.70C296.40,539.60 297.10,540.50 297.80,540.60C298.50,540.70 298.60,540.60 298.10,540.40C297.50,540.10 297.40,539.20 297.70,538.40C298.00,537.60 297.70,537.00 297.00,537.00C296.40,537.00 296.00,537.80 296.20,538.70Z M459.80,551.40C458.80,552.10 458.00,553.20 458.00,553.80C458.00,554.50 456.90,555.70 455.50,556.60C454.10,557.50 453.30,558.70 453.70,559.40C454.00,560.00 454.00,560.20 453.50,559.80C452.60,559.00 447.00,562.00 447.00,563.30C447.00,563.70 446.60,563.80 446.00,563.50C445.50,563.20 445.00,563.40 445.00,564.00C445.00,564.60 444.60,564.80 444.00,564.50C443.50,564.20 443.00,564.40 443.00,565.00C443.00,565.60 442.60,565.90 442.10,565.60C441.60,565.30 440.90,565.70 440.60,566.60C440.30,567.50 439.40,568.00 438.70,567.70C438.10,567.50 435.90,568.30 434.00,569.50C431.00,571.40 397.70,590.00 375.00,602.50C343.20,620.00 334.60,624.90 324.40,631.00C313.30,637.70 305.60,642.00 304.60,642.00C304.30,642.00 303.90,639.90 303.70,637.20C303.40,632.90 303.30,633.00 303.20,638.50C303.10,650.10 303.00,651.30 302.40,650.70C301.80,650.10 296.00,655.20 296.00,656.30C296.00,656.70 297.60,656.00 299.50,654.90C301.40,653.80 303.50,653.20 304.10,653.60C304.80,654.00 305.00,653.90 304.60,653.20C304.00,652.20 307.60,650.40 309.30,650.80C309.80,650.90 309.90,650.60 309.60,650.10C309.00,649.20 312.70,647.40 314.30,647.80C314.80,647.90 314.90,647.60 314.60,647.10C314.00,646.20 317.70,644.40 319.30,644.80C319.70,644.90 320.00,644.50 320.00,643.90C320.00,643.40 320.40,643.10 320.90,643.40C321.40,643.70 322.10,643.30 322.40,642.40C322.70,641.60 323.40,641.20 324.00,641.50C324.50,641.80 325.00,641.60 325.00,641.00C325.00,640.40 325.40,640.10 325.90,640.40C326.40,640.70 327.10,640.30 327.40,639.40C327.70,638.60 328.40,638.20 329.00,638.50C329.50,638.80 330.00,638.60 330.00,638.00C330.00,637.40 330.50,637.20 331.00,637.50C331.60,637.80 332.00,637.60 332.00,637.10C332.00,636.50 332.70,636.00 333.50,636.00C334.30,636.00 335.00,635.50 335.00,634.90C335.00,634.40 335.50,634.20 336.00,634.50C336.60,634.80 337.00,634.40 337.00,633.50C337.00,632.60 337.40,632.10 337.90,632.50C338.40,632.80 339.10,632.60 339.50,632.00C339.90,631.40 340.60,631.20 341.10,631.50C341.60,631.90 342.00,631.70 342.00,631.10C342.00,630.50 343.40,629.40 345.00,628.50C346.70,627.60 348.00,627.30 348.00,627.70C348.00,628.10 348.70,627.50 349.50,626.40C350.30,625.40 351.00,624.90 351.00,625.30C351.00,625.70 352.00,625.20 353.20,624.10C354.30,623.00 355.70,622.30 356.20,622.60C356.60,622.90 357.00,622.60 357.00,622.00C357.00,621.40 357.40,621.10 357.90,621.40C358.40,621.70 359.10,621.30 359.40,620.40C359.70,619.60 360.40,619.20 361.00,619.50C361.50,619.80 362.00,619.60 362.00,618.90C362.00,618.20 362.30,617.90 362.60,618.30C362.90,618.60 364.00,618.00 365.10,616.90C366.20,615.80 367.50,615.20 368.00,615.50C368.60,615.90 369.00,615.60 369.00,614.90C369.00,614.20 369.30,613.90 369.60,614.30C369.90,614.60 371.10,614.00 372.30,613.00C373.40,611.90 374.70,611.30 375.20,611.60C375.60,611.90 376.00,611.70 376.00,611.10C376.00,610.20 385.30,604.60 386.40,604.90C386.70,604.90 387.90,604.10 389.00,603.00C390.20,601.80 391.50,601.20 392.00,601.50C392.60,601.90 393.00,601.60 393.00,600.90C393.00,600.20 393.30,599.90 393.60,600.20C393.90,600.60 395.00,600.00 396.10,598.90C397.20,597.80 398.50,597.20 399.00,597.50C399.60,597.90 400.00,597.70 400.00,597.10C400.00,595.70 405.50,592.90 406.50,593.80C407.00,594.20 406.90,593.90 406.50,593.10C405.90,592.00 406.10,591.80 407.40,592.30C408.30,592.70 408.80,592.60 408.50,592.10C408.00,591.20 411.70,589.40 413.30,589.80C413.70,589.90 414.00,589.50 414.00,588.90C414.00,588.40 414.40,588.10 414.90,588.50C415.50,588.80 416.40,588.10 417.00,587.00C417.80,585.60 418.70,585.10 419.80,585.50C420.70,585.80 421.10,585.80 420.70,585.40C419.70,584.40 423.80,581.80 425.20,582.60C425.90,583.10 426.00,582.90 425.50,582.00C424.90,581.00 425.10,580.80 426.40,581.30C427.30,581.70 427.80,581.60 427.50,581.10C426.90,580.10 430.80,578.40 432.50,578.90C433.10,579.00 433.20,578.80 432.80,578.40C431.80,577.40 435.70,574.70 437.00,575.50C437.60,575.90 437.90,575.60 437.80,574.80C437.60,574.10 438.30,573.60 439.20,573.60C440.20,573.70 440.70,573.30 440.30,572.70C439.90,572.00 440.30,571.90 441.60,572.40C442.60,572.80 443.10,572.80 442.70,572.40C441.70,571.30 445.80,568.80 447.30,569.60C447.90,570.00 448.20,570.00 447.80,569.50C446.70,568.30 450.70,565.70 452.30,566.60C452.90,567.00 453.20,567.00 452.80,566.50C451.70,565.30 458.20,560.80 459.90,561.50C460.80,561.80 461.10,561.80 460.70,561.40C459.70,560.40 463.80,557.80 465.20,558.60C465.90,559.00 466.00,558.90 465.60,558.10C465.20,557.50 465.60,556.70 466.40,556.40C469.00,555.40 468.20,554.10 465.00,554.20C463.30,554.30 461.50,555.00 461.00,555.90C460.20,557.30 460.10,557.30 459.40,555.70C459.00,554.60 459.40,553.20 460.50,552.00C462.60,549.70 462.30,549.50 459.80,551.40Z M606.60,566.50C597.80,571.00 589.90,575.40 588.90,576.00C588.00,576.70 586.90,577.20 586.50,577.10C586.10,576.90 585.40,577.30 585.10,577.80C584.20,579.30 576.30,583.00 575.60,582.30C575.30,581.90 575.00,582.30 575.00,583.00C575.00,583.70 574.70,584.10 574.40,583.70C574.10,583.40 572.90,584.10 571.90,585.10C570.80,586.20 569.40,587.00 568.80,586.70C568.10,586.50 566.80,587.20 565.70,588.30C564.70,589.30 563.20,589.90 562.40,589.60C561.40,589.20 561.20,589.40 561.60,590.20C562.10,591.00 561.80,591.10 560.60,590.70C559.70,590.30 559.10,590.40 559.40,590.90C560.00,591.80 554.10,594.70 552.70,594.20C552.20,594.10 552.10,594.40 552.40,594.90C553.10,596.00 550.20,597.20 548.80,596.30C548.10,595.90 548.00,596.20 548.50,597.00C549.10,598.00 548.90,598.20 547.60,597.70C546.50,597.20 546.10,597.40 546.60,598.20C547.10,599.00 546.80,599.10 545.60,598.70C544.50,598.20 544.10,598.40 544.60,599.20C545.10,599.90 544.80,600.10 543.80,599.80C542.90,599.40 542.30,599.80 542.30,600.60C542.30,601.40 542.80,602.00 543.40,602.00C544.00,602.00 543.70,602.50 542.70,603.10C541.70,603.70 540.30,603.90 539.60,603.70C538.90,603.40 537.70,603.60 536.90,604.10C535.80,604.80 535.80,605.00 536.90,605.00C537.60,605.00 538.00,605.60 537.70,606.50C537.20,607.60 537.60,607.70 539.60,606.90C541.00,606.40 542.60,606.30 543.20,606.60C543.90,607.10 544.00,606.80 543.50,606.00C542.90,605.00 543.10,604.80 544.40,605.30C545.50,605.80 545.90,605.60 545.40,604.80C544.90,604.00 545.20,603.90 546.40,604.30C547.50,604.80 547.90,604.60 547.40,603.80C546.90,603.00 547.20,602.90 548.40,603.30C549.50,603.80 549.90,603.60 549.40,602.80C548.90,602.00 549.20,601.90 550.40,602.30C551.50,602.80 551.90,602.60 551.40,601.80C550.90,601.00 551.20,600.90 552.40,601.30C553.40,601.70 553.90,601.60 553.50,601.00C552.90,600.10 554.30,599.60 556.30,599.90C556.70,599.90 557.00,599.50 557.00,598.90C557.00,598.40 557.40,598.10 557.90,598.50C558.40,598.80 559.50,598.40 560.30,597.60C561.10,596.80 562.00,596.40 562.40,596.70C562.70,597.10 563.00,596.80 563.00,596.10C563.00,595.40 563.50,595.20 564.00,595.50C564.60,595.80 565.00,595.60 565.00,595.00C565.00,594.40 565.50,594.20 566.00,594.50C566.60,594.80 567.30,594.50 567.60,593.70C567.80,593.00 568.60,592.30 569.30,592.30C570.00,592.30 574.80,589.70 580.00,586.60C592.50,578.90 596.70,576.00 595.20,576.00C591.90,576.00 595.00,573.70 604.80,568.70C617.80,562.00 624.80,558.00 623.50,558.10C623.00,558.10 615.30,561.90 606.60,566.50Z M344.30,579.00C339.80,581.10 336.00,582.70 335.80,582.50C335.60,582.20 335.60,583.60 335.80,585.60C336.20,588.60 336.50,589.00 338.40,588.40C343.60,586.70 349.00,584.00 349.00,583.00C349.00,582.40 349.50,582.20 350.00,582.50C350.60,582.80 351.00,582.60 351.00,582.00C351.00,581.40 351.50,581.20 352.00,581.50C352.60,581.80 353.00,581.60 353.00,581.00C353.00,580.40 354.10,579.40 355.50,578.80C356.90,578.20 358.00,577.30 358.00,576.80C358.00,576.30 357.20,576.30 356.30,576.90C355.10,577.50 354.30,577.40 353.50,576.50C352.70,575.50 350.80,576.00 344.30,579.00Z M643.30,583.10C641.50,584.30 640.00,585.60 640.00,586.20C640.00,586.70 639.60,586.80 639.00,586.50C638.50,586.20 638.00,586.40 638.00,587.10C638.00,587.80 637.70,588.10 637.40,587.70C637.00,587.40 635.40,587.80 633.80,588.60C632.20,589.40 630.40,589.80 629.80,589.40C629.10,589.00 629.00,589.10 629.40,589.80C630.20,591.20 626.40,593.40 624.80,592.40C624.10,591.90 624.00,592.10 624.50,593.00C625.10,594.00 624.90,594.20 623.70,593.70C622.70,593.30 622.10,593.50 622.30,594.30C622.40,595.00 621.70,595.40 620.80,595.40C619.80,595.30 619.30,595.70 619.70,596.30C620.10,597.00 619.70,597.10 618.40,596.60C617.40,596.20 616.90,596.20 617.30,596.60C618.30,597.60 614.20,600.20 612.80,599.40C612.10,598.90 612.00,599.10 612.50,600.00C613.10,601.00 612.90,601.20 611.40,600.60C610.40,600.20 609.90,600.20 610.30,600.60C611.30,601.60 607.20,604.20 605.80,603.40C605.10,603.00 605.00,603.10 605.40,603.80C606.00,604.90 605.50,605.20 603.40,604.90C603.10,604.90 602.30,605.60 601.70,606.40C601.00,607.30 599.60,608.20 598.50,608.40C596.60,608.80 592.70,611.00 570.20,624.40C560.50,630.10 552.30,636.20 554.50,635.90C558.40,635.40 560.20,638.60 556.70,640.00C555.20,640.60 555.00,640.90 556.10,640.90C558.50,641.00 569.00,634.70 568.50,633.40C568.30,632.70 569.30,632.20 570.80,632.20C572.20,632.20 573.60,631.70 573.80,631.10C574.00,630.50 574.60,630.20 575.10,630.60C575.60,630.90 576.00,630.60 576.00,629.90C576.00,629.20 576.30,628.90 576.60,629.30C576.90,629.60 579.30,628.50 581.80,626.90C584.40,625.30 587.70,623.50 589.30,622.90C590.80,622.30 592.00,621.40 592.00,620.80C592.00,620.30 592.50,620.20 593.00,620.50C593.60,620.80 594.00,620.60 594.00,620.10C594.00,619.50 594.60,619.00 595.40,619.00C596.20,619.00 597.00,618.30 597.40,617.50C597.70,616.70 598.80,616.00 599.80,616.00C600.90,616.00 602.90,614.90 604.40,613.50C605.90,612.10 607.60,611.30 608.20,611.60C608.90,612.10 609.00,611.80 608.50,611.00C607.90,610.00 608.10,609.80 609.60,610.40C610.60,610.80 611.10,610.80 610.70,610.40C609.70,609.40 615.90,605.80 617.20,606.60C617.90,607.00 618.00,606.80 617.60,606.20C617.00,605.10 618.20,604.60 620.30,604.90C620.70,604.90 621.00,604.50 621.00,603.90C621.00,603.40 621.40,603.10 621.90,603.40C622.40,603.70 623.10,603.30 623.40,602.40C623.80,601.50 624.70,601.00 625.60,601.40C626.40,601.70 626.90,601.60 626.60,601.20C625.90,600.00 631.80,596.80 633.30,597.60C633.90,598.00 634.20,598.00 633.80,597.50C632.70,596.40 636.70,593.70 638.20,594.60C638.90,595.10 639.00,594.90 638.50,594.00C637.90,593.00 638.10,592.80 639.40,593.30C640.50,593.80 640.90,593.60 640.40,592.80C639.90,592.00 640.20,591.90 641.40,592.30C642.40,592.70 642.90,592.60 642.50,592.00C641.80,590.90 645.70,588.70 646.90,589.50C647.40,589.80 647.70,589.20 647.50,588.30C647.40,587.20 646.50,586.60 645.40,586.80C643.50,587.00 643.50,587.00 645.40,585.90C646.80,585.10 647.40,585.10 647.90,585.90C648.30,586.60 649.40,586.80 650.30,586.40C653.40,585.30 652.10,584.00 647.80,584.00C643.90,584.00 643.80,583.90 645.60,582.50C648.40,580.40 647.00,580.70 643.30,583.10ZM562.90,636.10C561.60,637.10 560.10,638.00 559.50,637.90C559.00,637.90 559.30,637.30 560.30,636.60C561.70,635.50 561.80,635.10 560.80,634.60C560.10,634.30 560.60,634.30 561.90,634.60C563.60,635.10 564.00,634.90 563.50,634.00C562.90,633.10 563.10,632.90 564.00,633.50C565.00,634.10 564.70,634.70 562.90,636.10Z M524.80,616.40C523.80,617.10 523.30,618.00 523.70,618.30C524.90,619.50 526.00,619.00 526.10,617.20C526.10,615.80 526.30,615.80 527.00,617.50C527.70,619.10 527.90,619.20 527.90,617.80C528.00,615.50 526.80,614.90 524.80,616.40Z M564.00,647.60C561.50,648.90 558.90,649.70 558.20,649.50C557.40,649.20 557.20,649.50 557.60,650.20C558.10,651.00 557.80,651.10 556.60,650.70C555.50,650.20 555.10,650.40 555.60,651.20C556.10,652.00 555.80,652.10 554.60,651.70C553.50,651.20 553.10,651.40 553.60,652.20C554.10,653.00 553.80,653.10 552.60,652.70C551.50,652.20 551.10,652.40 551.60,653.20C552.10,654.00 551.80,654.10 550.60,653.70C549.50,653.20 549.10,653.40 549.60,654.20C550.10,655.00 549.80,655.10 548.60,654.70C547.50,654.20 547.10,654.40 547.60,655.20C548.10,656.00 547.80,656.10 546.60,655.70C545.50,655.20 545.10,655.40 545.60,656.20C546.10,657.00 545.80,657.10 544.60,656.70C543.60,656.30 543.10,656.40 543.50,657.00C544.10,657.90 542.70,658.40 540.80,658.10C540.30,658.10 540.00,658.50 540.00,659.10C540.00,659.60 539.60,659.80 539.00,659.50C538.50,659.20 538.00,659.40 538.00,660.00C538.00,660.60 537.60,660.90 537.20,660.60C536.70,660.30 535.40,660.90 534.30,662.00C533.10,663.00 531.90,663.60 531.60,663.30C531.30,662.90 531.00,663.20 531.00,663.90C531.00,664.60 530.60,664.80 530.00,664.50C529.50,664.20 529.00,664.40 529.00,665.00C529.00,665.60 528.60,665.80 528.00,665.50C527.50,665.20 527.00,665.40 527.00,666.00C527.00,666.60 526.60,666.90 526.10,666.60C525.60,666.30 524.90,666.70 524.60,667.60C524.30,668.40 523.60,668.90 523.10,668.60C522.60,668.20 521.50,668.60 520.70,669.40C519.90,670.20 519.00,670.60 518.60,670.30C518.30,669.90 518.00,670.20 518.00,670.90C518.00,671.60 517.60,671.80 517.00,671.50C516.50,671.20 516.00,671.40 516.00,672.00C516.00,672.60 515.60,672.90 515.00,672.50C514.50,672.20 513.20,672.80 512.00,674.00C510.90,675.10 510.00,675.80 510.00,675.50C510.00,674.50 501.50,679.20 500.70,680.70C500.20,681.40 499.50,681.80 498.90,681.50C498.40,681.10 498.00,681.40 498.00,682.00C498.00,682.60 497.60,682.80 497.00,682.50C496.50,682.20 496.00,682.40 496.00,682.90C496.00,683.50 495.70,683.90 495.30,683.80C494.40,683.50 475.40,694.00 441.50,713.40C430.00,719.90 417.10,727.20 413.00,729.50C408.90,731.80 399.40,737.20 392.00,741.50C384.60,745.80 374.20,751.70 369.00,754.60C359.30,759.90 341.70,770.10 339.00,772.00C338.20,772.50 340.70,771.50 344.60,769.60C348.60,767.70 352.00,766.40 352.40,766.70C352.70,767.10 353.00,766.80 353.00,766.20C353.00,765.60 354.30,764.50 355.90,763.70C358.20,762.50 358.70,762.50 358.30,763.60C358.10,764.30 357.10,765.10 356.20,765.30C355.20,765.60 355.60,765.70 357.10,765.70C358.80,765.60 359.60,765.00 359.70,763.70C359.90,761.30 360.30,760.90 362.80,760.70C363.90,760.70 364.70,760.30 364.40,759.90C364.20,759.50 364.70,758.70 365.50,758.00C366.70,757.00 366.80,757.20 366.50,759.00C366.20,760.80 366.30,761.00 367.50,760.00C368.30,759.30 369.00,758.20 369.00,757.40C369.00,755.30 370.90,754.80 372.60,756.40C374.40,758.20 375.60,758.40 376.50,757.00C376.80,756.40 376.50,756.00 375.80,756.00C374.90,756.00 374.90,755.70 376.00,755.00C376.80,754.50 377.00,754.00 376.40,754.00C375.90,754.00 374.90,754.50 374.30,755.10C373.50,755.90 373.00,755.90 372.60,755.10C372.20,754.50 372.50,754.00 373.30,754.00C374.10,754.00 375.70,753.10 377.00,752.00C378.20,750.90 379.70,750.30 380.30,750.70C380.90,751.00 380.30,751.70 379.10,752.20C377.30,752.80 377.00,753.30 377.90,754.40C378.50,755.10 378.70,755.90 378.50,756.20C378.20,756.50 379.20,756.50 380.70,756.30C383.30,755.90 383.20,756.10 379.60,758.40C376.40,760.40 375.30,760.70 374.10,759.70C372.90,758.70 372.80,758.80 373.40,759.80C373.90,760.60 373.50,761.70 372.40,762.50C369.30,764.90 372.20,764.10 376.50,761.50C378.70,760.10 381.30,758.70 382.30,758.40C383.30,758.00 383.90,757.20 383.70,756.60C383.50,756.00 383.60,754.50 384.10,753.40C384.70,751.70 384.50,751.30 383.20,751.40C380.90,751.50 381.00,748.60 383.40,748.20C384.50,747.90 385.00,748.20 384.60,748.90C384.20,749.50 384.40,750.00 384.90,750.00C385.50,750.00 386.00,749.40 386.10,748.70C386.10,748.10 386.50,748.40 387.00,749.50C387.70,751.20 387.90,751.10 388.00,748.50C388.10,746.80 388.40,746.20 388.60,747.00C389.00,748.10 390.10,748.40 393.00,748.20C395.20,748.00 396.70,747.40 396.40,746.90C396.10,746.40 396.20,746.10 396.70,746.20C397.10,746.30 398.50,745.90 399.80,745.20C401.00,744.50 402.00,744.30 402.00,744.70C402.00,746.00 394.90,749.50 393.10,749.20C391.70,749.00 391.70,749.00 393.00,749.90C394.30,750.90 394.30,751.00 393.00,751.10C390.50,751.40 389.60,751.70 387.10,752.70C385.00,753.50 384.90,753.70 386.50,754.30C388.00,754.90 405.40,746.20 407.00,743.90C407.30,743.60 408.50,743.00 409.80,742.60C411.00,742.20 412.00,741.10 412.00,740.20C412.00,738.70 412.20,738.70 413.00,740.00C413.80,741.30 414.00,741.30 414.00,739.80C414.00,738.90 414.50,737.80 415.20,737.40C415.90,737.00 416.00,737.10 415.60,737.90C415.10,738.70 416.10,738.60 418.70,737.50C420.80,736.60 422.70,735.40 422.90,734.80C423.80,732.20 427.10,729.90 428.40,731.00C429.40,731.80 429.90,731.60 430.30,730.10C430.50,729.00 432.20,727.40 434.00,726.50C435.80,725.60 436.90,725.30 436.60,725.80C436.20,726.40 436.80,726.60 438.00,726.30C439.10,726.00 440.00,724.90 440.00,723.90C440.00,721.30 441.70,720.60 442.90,722.70C443.50,723.70 444.00,723.90 444.00,723.20C444.00,722.60 444.70,722.00 445.60,722.00C446.70,722.00 447.00,721.50 446.50,720.20C446.00,718.90 446.20,718.80 447.10,719.70C448.00,720.60 448.70,720.40 450.30,719.00C451.40,717.90 452.70,717.30 453.20,717.60C453.60,717.90 454.00,717.60 454.00,716.90C454.00,716.20 454.30,715.90 454.60,716.30C454.90,716.60 456.10,716.00 457.30,715.00C458.40,713.90 459.80,713.40 460.30,713.70C460.90,714.10 461.10,713.70 460.70,712.70C460.00,710.90 462.30,709.70 463.80,711.20C464.50,711.90 465.00,711.60 465.40,710.20C465.90,708.80 466.80,708.30 468.00,708.50C469.10,708.70 470.00,708.40 470.00,707.90C470.00,707.30 470.50,707.20 471.00,707.50C471.60,707.80 472.00,707.60 472.00,707.00C472.00,706.40 472.50,706.20 473.00,706.50C473.60,706.80 474.00,706.60 474.00,705.90C474.00,705.20 474.30,704.90 474.60,705.30C474.90,705.60 476.00,705.00 477.10,703.90C478.20,702.80 479.50,702.20 480.00,702.50C480.60,702.90 481.00,702.60 481.00,702.00C481.00,701.40 481.50,701.20 482.00,701.50C482.60,701.80 483.00,701.70 483.00,701.30C483.00,700.10 488.60,696.90 489.40,697.70C489.70,698.00 490.00,697.90 490.00,697.40C490.00,696.10 497.50,691.90 498.40,692.70C498.70,693.00 499.00,692.70 499.00,692.00C499.00,691.30 499.30,691.00 499.70,691.30C500.00,691.70 500.90,691.20 501.70,690.20C502.60,689.10 502.90,689.10 502.40,690.00C502.00,690.80 502.70,690.50 503.90,689.20C505.90,687.20 507.30,686.60 509.30,686.90C509.80,687.00 509.90,686.60 509.60,686.10C509.00,685.20 512.70,683.40 514.30,683.80C514.70,683.90 515.00,683.50 515.00,682.90C515.00,682.40 515.40,682.10 515.90,682.40C516.40,682.70 517.10,682.30 517.40,681.40C517.80,680.50 518.70,680.00 519.60,680.40C520.40,680.70 520.80,680.60 520.50,680.10C520.00,679.20 523.70,677.40 525.30,677.80C525.70,677.90 526.00,677.50 526.00,676.80C526.00,676.20 526.30,675.90 526.60,676.30C526.90,676.60 528.00,676.00 529.10,674.90C530.20,673.80 531.60,673.20 532.20,673.60C532.90,674.10 533.00,673.90 532.50,673.00C531.90,672.00 532.10,671.80 533.40,672.30C534.50,672.80 534.90,672.60 534.40,671.80C533.90,671.00 534.20,670.90 535.40,671.30C536.30,671.70 536.80,671.60 536.50,671.10C536.00,670.20 538.20,669.00 540.30,669.00C540.70,669.00 541.90,668.10 543.10,666.90C544.20,665.80 545.80,665.10 546.60,665.40C547.40,665.70 547.90,665.60 547.60,665.10C547.00,664.20 552.90,661.30 554.30,661.80C554.80,661.90 554.80,661.50 554.40,660.90C553.90,660.00 554.20,659.90 555.40,660.30C556.50,660.80 556.90,660.60 556.40,659.80C555.90,659.00 556.20,658.90 557.40,659.30C558.50,659.80 558.90,659.60 558.40,658.80C557.90,658.00 558.20,657.90 559.40,658.30C560.50,658.80 560.90,658.60 560.40,657.80C559.90,657.00 560.20,656.90 561.40,657.30C562.40,657.70 562.90,657.60 562.50,657.00C561.80,655.80 565.70,653.70 567.20,654.60C567.90,655.10 568.00,654.90 567.50,654.00C566.90,653.00 567.10,652.80 568.40,653.30C569.50,653.80 569.90,653.60 569.40,652.80C568.90,652.00 569.20,651.90 570.40,652.30C571.40,652.70 571.90,652.60 571.50,652.00C571.20,651.50 572.30,650.40 573.90,649.50C575.50,648.70 577.20,647.40 577.60,646.80C578.20,645.80 578.10,645.80 576.90,646.70C574.80,648.40 567.70,648.20 568.40,646.40C568.70,645.60 568.80,645.00 568.70,645.10C568.60,645.10 566.50,646.20 564.00,647.60ZM408.10,742.10C406.30,743.20 404.30,743.90 403.60,743.60C403.00,743.40 403.30,743.10 404.30,743.10C405.40,743.00 405.80,742.50 405.40,741.80C405.00,741.20 405.10,741.00 405.60,741.30C406.20,741.60 407.20,741.50 408.00,740.90C408.80,740.40 410.00,740.00 410.50,740.00C411.10,740.00 410.00,740.90 408.10,742.10Z M329.60,663.20C330.10,663.90 328.50,664.40 326.70,664.10C326.20,664.00 326.10,664.40 326.40,664.90C326.80,665.40 321.60,668.80 315.10,672.50C303.80,678.80 303.20,679.30 304.00,681.60C304.80,683.70 304.40,684.30 300.40,687.10C297.00,689.40 296.10,690.50 297.10,691.10C298.20,691.70 298.20,692.20 297.20,693.20C296.50,693.90 295.90,697.60 295.80,702.40C295.70,709.90 295.60,710.10 295.00,705.50C294.60,702.70 294.20,711.50 294.20,725.50C294.10,739.20 293.70,762.90 293.30,778.10C292.70,804.10 293.20,811.60 295.40,808.10C295.80,807.50 295.60,807.00 295.10,807.00C293.70,807.00 293.60,781.80 294.90,780.50C295.40,779.90 296.00,777.50 296.20,775.00C296.50,771.40 297.00,770.60 298.30,770.80C299.40,771.00 300.00,770.40 300.00,769.40C300.00,766.90 301.10,768.40 302.00,772.20C302.40,774.00 302.80,755.30 302.90,730.70L303.00,685.90L306.50,683.90C308.40,682.70 310.00,681.40 310.00,680.80C310.00,680.30 310.50,680.20 311.00,680.50C311.60,680.80 312.00,680.60 312.00,680.00C312.00,679.40 312.50,679.20 313.00,679.50C313.60,679.80 314.00,679.60 314.00,678.90C314.00,678.20 314.30,677.90 314.60,678.30C314.90,678.60 319.30,676.40 324.30,673.50C333.20,668.20 333.50,668.10 334.20,670.30C334.60,671.60 334.80,670.50 334.70,667.50C334.50,662.80 334.30,662.50 331.80,662.50C330.30,662.40 329.40,662.80 329.60,663.20Z M397.40,694.10C397.10,694.70 396.00,695.00 395.00,694.70C392.70,694.10 389.80,695.80 390.60,697.20C391.00,697.90 390.80,698.00 390.20,697.60C389.60,697.20 387.20,697.90 385.00,699.00C382.80,700.10 380.40,700.80 379.80,700.40C379.10,700.00 379.00,700.10 379.40,700.80C380.20,702.20 374.40,705.30 372.70,704.40C372.00,704.00 371.80,704.10 372.30,704.50C373.20,705.60 365.10,710.20 363.70,709.30C363.20,709.00 363.00,709.20 363.40,709.80C364.00,710.70 362.40,711.70 359.50,712.10C359.00,712.20 357.90,713.00 357.20,713.90C356.10,715.20 356.00,715.20 356.50,714.00C356.90,713.20 356.40,713.40 355.60,714.40C354.70,715.50 354.00,716.00 354.00,715.50C354.00,715.00 353.40,715.40 352.70,716.50C351.80,717.60 350.80,718.00 350.00,717.50C349.30,717.00 348.90,717.10 349.20,717.60C349.90,718.70 347.50,721.10 346.60,720.30C346.30,719.90 346.00,720.20 346.00,720.90C346.00,721.60 345.60,721.90 345.20,721.60C344.70,721.30 344.30,721.70 344.30,722.50C344.30,724.20 345.60,724.50 346.50,723.10C346.80,722.50 348.80,722.20 350.90,722.30C353.80,722.40 357.50,721.00 366.30,716.50C372.70,713.20 377.70,710.30 377.40,709.90C377.20,709.50 377.70,708.90 378.60,708.60C379.60,708.20 379.90,708.40 379.50,709.30C379.10,709.90 379.60,709.60 380.40,708.60C381.30,707.50 382.00,707.00 382.00,707.50C382.00,708.00 382.60,707.60 383.30,706.50C384.20,705.40 385.20,705.00 386.00,705.50C386.90,706.10 387.10,705.90 386.50,705.00C385.90,704.00 386.10,703.80 387.30,704.30C388.30,704.70 388.90,704.50 388.70,703.70C388.60,703.00 389.30,702.60 390.20,702.60C391.20,702.70 391.70,702.30 391.30,701.70C390.90,701.10 391.30,700.90 392.40,701.30C393.40,701.70 393.90,701.60 393.50,701.00C392.80,699.90 398.60,696.70 399.90,697.40C400.30,697.70 400.50,696.80 400.20,695.50C399.70,692.90 398.60,692.30 397.40,694.10Z M339.70,722.90C335.40,725.70 335.20,726.30 339.30,724.40C341.30,723.40 343.00,722.30 343.00,721.80C343.00,720.80 343.10,720.80 339.70,722.90Z M366.30,764.50C366.60,765.10 360.40,769.40 352.50,774.00C344.60,778.70 338.30,782.60 338.50,782.80C338.70,783.10 366.70,767.50 367.90,766.30C368.20,766.10 367.80,765.40 367.00,764.70C366.30,764.10 366.00,764.00 366.30,764.50Z"/>
<path fill-rule="evenodd" fill="url(#gh)" d="M303.50,168.90C304.40,169.80 352.80,192.50 426.50,226.50C443.60,234.40 462.50,243.20 468.50,246.00C474.60,248.90 483.10,252.90 487.50,255.00C491.90,257.00 503.20,262.30 512.50,266.70C521.90,271.20 533.30,276.60 538.00,278.80C542.70,281.00 560.90,289.60 578.50,298.00C610.30,313.10 715.60,362.00 716.50,362.00C716.70,362.00 719.90,363.40 723.50,365.10L730.10,368.30L700.30,383.60C683.90,391.90 664.40,402.10 657.00,406.20L643.50,413.60L643.00,418.30C642.30,424.10 642.10,424.10 657.50,416.00C669.30,409.80 729.40,378.40 739.80,373.00C743.20,371.30 746.30,369.40 746.60,368.90C747.10,368.00 738.70,363.80 718.00,354.50C698.40,345.70 621.60,309.80 570.50,285.50C552.40,276.90 527.20,264.90 514.50,259.00C480.10,242.90 445.10,226.50 440.00,224.20C435.60,222.20 423.00,216.30 408.00,209.30C395.50,203.40 372.80,192.90 347.00,181.10C333.50,175.00 321.70,169.50 320.80,169.00C318.30,167.60 317.60,167.80 319.00,169.50C320.80,171.60 311.30,171.60 306.20,169.40C304.20,168.60 303.00,168.30 303.50,168.90Z M282.10,327.20C282.00,414.60 282.30,486.00 282.80,486.00C283.20,486.00 285.20,484.90 287.30,483.60L291.10,481.30L290.90,340.90C290.80,263.70 290.60,196.00 290.40,190.50C290.00,171.40 289.80,168.50 289.30,169.70C289.10,170.40 287.60,171.00 286.00,171.00C284.40,171.00 282.90,170.40 282.70,169.70C282.40,169.10 282.10,239.90 282.10,327.20Z M384.10,403.20L384.10,489.50L386.20,485.00C389.30,478.10 395.00,460.90 393.90,461.50C392.80,462.20 392.70,441.20 393.70,377.70L394.30,332.00L396.40,332.60C400.00,333.60 492.80,378.10 520.50,392.00C531.40,397.50 535.80,400.20 536.70,402.10C537.60,404.00 544.40,407.90 566.70,419.00C601.60,436.40 702.00,487.40 714.50,494.00C719.50,496.60 731.20,502.70 740.50,507.50C749.90,512.30 757.90,516.60 758.30,517.00C758.70,517.40 751.30,521.90 741.80,527.00C732.30,532.10 721.10,538.20 717.00,540.50C712.90,542.80 703.40,548.00 696.00,552.00C674.10,563.90 644.60,580.60 628.00,590.50C619.50,595.60 609.20,601.60 605.30,603.90C601.30,606.20 598.00,608.30 598.00,608.50C598.00,609.10 610.10,602.60 617.90,597.70C621.40,595.60 625.30,593.70 626.60,593.60C627.80,593.60 628.60,593.20 628.40,592.80C628.10,592.40 628.90,591.60 630.00,591.00C631.30,590.30 632.00,590.30 632.00,591.00C632.00,591.50 631.50,592.00 630.90,592.00C630.30,592.00 630.10,592.70 630.40,593.60C630.70,594.40 630.60,594.90 630.20,594.60C629.80,594.40 628.80,594.50 628.00,595.10C626.90,595.70 627.30,596.00 629.50,596.00C632.30,596.10 632.40,596.10 630.60,597.50C629.60,598.30 622.70,602.40 615.30,606.50C608.00,610.70 602.00,614.40 602.00,614.60C602.00,614.90 604.40,613.80 607.30,612.20C662.00,581.30 675.40,573.80 688.00,567.00C694.90,563.30 707.00,556.70 715.00,552.30C723.00,547.90 735.60,541.00 743.00,537.00C764.20,525.40 773.30,520.20 775.40,518.70C777.20,517.50 773.70,515.50 735.90,496.00C713.10,484.30 690.00,472.40 684.50,469.50C628.70,440.20 621.00,436.10 587.50,417.50C571.40,408.60 519.90,382.40 500.00,373.00C470.60,359.20 403.60,326.90 390.20,320.10L384.00,317.00L384.10,403.20ZM636.80,592.80C637.70,593.40 637.30,594.00 635.40,594.90C632.40,596.20 631.50,595.80 632.30,593.50C633.00,591.90 634.80,591.60 636.80,592.80Z M625.30,394.00C623.50,395.00 618.30,397.60 613.60,399.60C603.40,404.00 602.70,405.30 612.60,401.20C619.80,398.30 631.20,392.00 629.50,392.00C629.00,392.00 627.10,392.90 625.30,394.00Z M293.20,570.80C293.10,620.00 293.30,660.00 293.80,659.80C296.20,658.70 324.00,641.70 324.00,641.30C324.00,641.10 322.50,641.70 320.80,642.80C317.90,644.50 304.30,652.30 301.50,653.80C301.00,654.10 301.10,653.60 301.90,652.70C303.00,651.30 303.20,639.60 303.00,584.80C302.80,527.80 302.00,495.90 301.00,505.00C300.90,506.40 300.80,507.80 300.80,508.10C300.90,508.40 300.30,508.70 299.50,508.70C298.70,508.70 298.30,508.30 298.60,507.80C298.90,507.40 298.50,507.00 297.70,507.00C296.60,507.00 296.20,505.70 296.20,501.80C296.10,499.00 295.70,496.40 295.10,496.10C294.60,495.70 293.90,492.30 293.70,488.50C293.60,484.60 293.30,521.70 293.20,570.80Z M409.00,545.50C367.60,566.20 333.90,583.30 334.10,583.50C334.40,583.70 337.70,582.30 341.70,580.40C348.10,577.40 349.10,577.20 351.40,578.40L354.00,579.70L351.40,580.90C349.90,581.50 349.00,582.30 349.20,582.50C349.70,583.10 377.80,569.50 444.10,536.70L485.70,516.10L492.10,517.10C495.60,517.60 501.70,518.40 505.50,518.80L512.50,519.50L508.00,522.10C498.00,527.90 466.80,547.00 463.10,549.70C457.00,554.00 456.40,561.60 462.40,557.60C465.90,555.40 466.80,555.60 463.70,558.00C462.30,559.10 460.90,560.00 460.50,560.00C460.20,560.00 457.90,561.30 455.60,563.00C451.30,565.90 423.10,582.80 392.10,600.90C383.20,606.10 376.00,610.50 376.00,610.70C376.00,611.20 375.60,611.40 404.00,595.00C429.90,580.00 478.70,550.70 498.00,538.50C506.50,533.10 518.30,525.80 524.20,522.10C530.10,518.50 535.00,515.20 535.00,514.90C535.00,514.50 532.90,514.00 530.30,513.60C521.00,512.30 486.50,508.00 485.40,508.00C484.70,508.00 450.40,524.90 409.00,545.50Z M451.80,560.40C448.30,563.30 448.30,563.90 451.60,563.20C453.10,562.90 454.50,561.90 454.80,560.80C455.20,559.30 455.50,559.10 456.10,560.20C456.80,561.20 457.00,561.10 457.00,559.70C457.00,557.30 455.00,557.60 451.80,560.40Z M441.80,565.60C439.10,566.90 437.00,568.30 437.00,568.50C437.00,568.80 438.80,568.10 441.10,567.00C443.40,565.80 445.80,565.10 446.40,565.30C447.10,565.60 447.70,565.20 447.70,564.40C447.70,562.60 447.40,562.60 441.80,565.60Z M580.70,579.70C577.00,581.70 574.10,583.40 574.30,583.60C574.50,583.80 578.00,582.20 582.10,580.00C586.20,577.80 589.10,576.10 588.50,576.10C588.00,576.10 584.50,577.70 580.70,579.70Z M552.00,594.60C517.30,612.50 519.00,611.40 519.00,616.50C519.00,622.70 521.80,620.90 462.00,654.00C436.30,668.30 376.40,702.10 362.80,710.10C355.10,714.60 353.50,716.50 360.80,712.40C363.40,711.00 368.30,708.20 371.70,706.30C375.20,704.40 378.40,703.10 379.00,703.50C379.50,703.80 380.90,703.60 382.00,703.00C383.40,702.20 384.00,702.20 384.00,703.00C384.00,703.60 384.50,703.80 385.00,703.50C385.60,703.20 386.00,703.20 386.00,703.70C386.00,704.10 383.70,705.80 381.00,707.30C378.20,708.90 376.00,710.30 376.00,710.60C376.00,711.20 374.60,711.90 404.00,695.50C417.50,688.00 442.50,674.00 459.50,664.50C501.20,641.20 520.00,630.30 522.80,627.70C524.00,626.60 525.80,623.20 526.60,620.30C528.40,614.20 527.60,614.80 545.30,605.50C552.40,601.80 558.00,598.60 557.70,598.40C557.50,598.10 554.30,599.50 550.70,601.50L544.10,605.10L544.60,602.30C544.90,600.80 545.20,599.50 545.30,599.40C545.40,599.30 551.40,596.20 558.50,592.50C570.10,586.50 574.30,584.00 573.00,584.00C572.70,584.00 563.30,588.80 552.00,594.60Z M646.00,607.90C637.10,611.20 634.70,612.30 602.90,627.80C589.40,634.40 575.20,641.00 571.40,642.60C567.60,644.10 562.90,646.30 560.90,647.60C558.90,648.80 552.90,652.10 547.40,654.80C542.00,657.60 536.60,660.50 535.50,661.40C534.40,662.30 539.80,659.80 547.40,656.00C555.10,652.10 561.60,649.40 561.90,649.90C562.30,650.40 563.80,651.20 565.40,651.60C567.50,652.10 568.10,652.00 567.60,651.20C567.10,650.40 567.50,650.20 568.50,650.60C570.40,651.40 566.80,653.60 539.00,668.90C527.70,675.20 518.10,680.70 517.50,681.30C517.00,681.80 518.80,681.10 521.50,679.50C524.30,678.00 534.80,672.30 545.00,666.70C555.20,661.20 569.60,653.30 577.00,649.20C584.40,645.10 602.00,635.60 616.00,628.00C644.40,612.70 653.60,607.40 654.50,606.00C655.40,604.60 654.50,604.80 646.00,607.90Z M369.30,614.10C366.40,615.80 364.00,617.40 364.00,617.70C364.00,618.20 372.90,613.30 374.50,611.90C376.10,610.30 374.60,611.00 369.30,614.10Z M356.70,621.40C351.90,624.30 350.60,625.70 354.50,623.70C357.60,622.10 361.90,619.10 361.00,619.10C360.70,619.10 358.80,620.10 356.70,621.40Z M314.00,671.40L293.50,682.80L293.50,729.20C293.40,773.50 293.50,774.00 294.00,742.50C294.30,724.30 294.60,712.20 294.80,715.40C295.00,722.60 296.20,722.20 296.20,715.00C296.10,712.20 296.40,710.20 296.80,710.40C297.30,710.70 297.70,709.90 297.70,708.80C297.80,707.60 298.30,706.40 298.70,706.10C299.10,705.80 299.50,704.60 299.50,703.50C299.50,702.40 300.30,700.70 301.30,699.70C302.30,698.70 302.90,697.60 302.60,697.20C302.20,696.90 301.30,697.50 300.50,698.60C299.40,699.90 299.10,700.00 299.20,699.00C299.40,698.20 300.20,697.00 300.90,696.40C301.80,695.70 302.40,693.30 302.50,690.40C302.70,685.80 302.90,685.40 306.60,683.30C309.20,681.80 310.50,680.40 310.40,679.10C310.30,677.90 310.70,677.30 311.10,677.60C311.60,677.90 312.00,677.70 312.00,677.10C312.00,676.00 315.90,674.40 317.50,674.90C318.10,675.00 318.00,674.60 317.40,674.00C316.50,673.10 315.70,673.10 314.10,673.90C312.90,674.60 312.00,674.80 312.00,674.60C312.00,674.30 313.40,673.30 315.10,672.40C316.80,671.60 317.90,671.30 317.60,671.90C316.60,673.40 318.00,673.20 321.00,671.40C322.80,670.30 323.00,670.00 321.50,670.40C319.60,671.00 319.60,670.90 321.30,669.60C322.40,668.80 323.70,668.30 324.30,668.40C325.00,668.60 325.10,668.50 324.70,668.20C324.00,667.90 332.30,662.00 333.50,662.00C333.70,662.00 334.10,662.80 334.30,663.70C334.60,664.80 334.80,664.40 334.90,662.70C334.90,661.20 334.90,660.00 334.80,660.00C334.60,660.00 325.30,665.20 314.00,671.40Z M525.80,666.40C520.50,669.50 519.70,670.70 524.50,668.20C529.50,665.50 531.80,664.00 530.50,664.10C530.00,664.20 527.80,665.20 525.80,666.40Z M502.70,689.20C495.70,693.10 490.10,696.40 490.30,696.60C490.70,697.00 513.70,684.40 515.50,682.90C517.30,681.20 515.30,682.20 502.70,689.20Z M349.50,717.60C342.10,721.50 341.50,722.70 348.80,719.10C352.20,717.40 355.00,715.80 355.00,715.50C355.00,714.70 354.90,714.80 349.50,717.60Z"/>
</svg>